<svg width="1200" height="1200" viewBox="0 0 1200 1200" fill="none" xmlns="http://www.w3.org/2000/svg">
  <defs>
    <linearGradient id="bg" x1="122" y1="96" x2="1088" y2="1098" gradientUnits="userSpaceOnUse">
      <stop stop-color="#F2EEE8"/>
      <stop offset="1" stop-color="#DDD2C5"/>
    </linearGradient>
  </defs>
  <rect width="1200" height="1200" fill="url(#bg)"/>
  <circle cx="954" cy="258" r="168" fill="#FFFFFF" fill-opacity="0.64"/>
  <circle cx="270" cy="948" r="230" fill="#C9A98D" fill-opacity="0.18"/>
  <rect x="88" y="88" width="1024" height="1024" rx="46" stroke="#0C0A09" stroke-opacity="0.08" stroke-width="4"/>
  <path d="M248 754C327 654 447 596 574 596H762C826 596 886 618 933 659L980 700L927 753C882 798 821 823 758 823H519C443 823 371 794 318 741L248 671V754Z" fill="#FDFBF7"/>
  <path d="M334 719C390 670 461 642 536 642H784C833 642 879 660 914 693L949 724L909 758C870 791 820 810 768 810H531C475 810 422 791 382 754L334 719Z" fill="#E0D8CC"/>
  <path d="M431 699H698C725 699 752 689 772 670L809 636L862 677L824 714C791 748 746 767 699 767H471L431 699Z" fill="#0C0A09"/>
  <text x="90" y="160" fill="#57534E" font-family="IBM Plex Sans, Inter, system-ui, sans-serif" font-size="30" font-weight="500" letter-spacing="8">NIKE</text>
  <text x="90" y="246" fill="#0C0A09" font-family="IBM Plex Sans, Inter, system-ui, sans-serif" font-size="102" font-weight="500" letter-spacing="-4">Dunk Low</text>
  <text x="90" y="334" fill="#57534E" font-family="IBM Plex Sans, Inter, system-ui, sans-serif" font-size="52" font-weight="500" letter-spacing="-1">Retro</text>
  <text x="90" y="1032" fill="#57534E" font-family="IBM Plex Sans, Inter, system-ui, sans-serif" font-size="34" font-weight="500" letter-spacing="6">COURT PROFILE</text>
</svg>
