<svg width="1200" height="1200" viewBox="0 0 1200 1200" fill="none" xmlns="http://www.w3.org/2000/svg">
  <defs>
    <linearGradient id="bg" x1="108" y1="104" x2="1076" y2="1088" gradientUnits="userSpaceOnUse">
      <stop stop-color="#F3F1EE"/>
      <stop offset="1" stop-color="#D7D4D0"/>
    </linearGradient>
  </defs>
  <rect width="1200" height="1200" fill="url(#bg)"/>
  <circle cx="944" cy="254" r="170" fill="#FFFFFF" fill-opacity="0.64"/>
  <rect x="88" y="88" width="1024" height="1024" rx="46" stroke="#0C0A09" stroke-opacity="0.08" stroke-width="4"/>
  <path d="M250 738C331 643 450 589 574 589H777C850 589 918 617 968 668L1012 713L959 759C906 805 837 831 765 831H532C453 831 379 800 324 744L250 669V738Z" fill="#FBFAF8"/>
  <path d="M330 709C385 661 455 633 528 633H780C832 633 881 652 918 687L954 719L912 754C873 787 822 806 770 806H525C470 806 418 787 379 752L330 709Z" fill="#B9C0C5"/>
  <path d="M536 651H615L661 694L615 738H536L489 694L536 651Z" fill="#6E7A83"/>
  <path d="M630 651H709L755 694L709 738H630L584 694L630 651Z" fill="#0C0A09"/>
  <text x="90" y="160" fill="#57534E" font-family="IBM Plex Sans, Inter, system-ui, sans-serif" font-size="30" font-weight="500" letter-spacing="8">NEW BALANCE</text>
  <text x="90" y="246" fill="#0C0A09" font-family="IBM Plex Sans, Inter, system-ui, sans-serif" font-size="104" font-weight="500" letter-spacing="-4">990v5</text>
  <text x="90" y="1032" fill="#57534E" font-family="IBM Plex Sans, Inter, system-ui, sans-serif" font-size="34" font-weight="500" letter-spacing="6">CLASSIC RUNNER</text>
</svg>
